<svg width="160" height="36" viewBox="0 0 160 36" fill="none" xmlns="http://www.w3.org/2000/svg">
<path d="M1.09295 16.07V3.3958H4.31724L7.7302 13.0001L11.1088 3.3958H14.3331V16.07H11.9835V6.56865L8.67347 16.07H6.75262L3.44257 6.56865V16.07H1.09295Z" fill="white"/>
<path d="M15.672 16.07L20.9543 3.3958H22.8066L28.1232 16.07H25.5335L24.1786 12.7943H19.668L18.2617 16.07H15.672ZM20.5256 10.5476H23.2353L21.8804 6.70585L20.5256 10.5476Z" fill="white"/>
<path d="M29.465 16.07V3.3958H31.8146V8.86681L35.7421 3.3958H38.5719L33.8041 9.62144L38.5719 16.07H35.7421L31.8146 10.4961V16.07H29.465Z" fill="white"/>
<path d="M38.9022 16.07L44.2017 3.3958H46.054L51.3535 16.07H48.8152L45.1278 6.6201L41.4405 16.07H38.9022Z" fill="white"/>
<path d="M52.6952 16.07V3.3958H55.0277V12.1769L60.533 3.3958H62.9169V16.07H60.5845V7.28897L55.0791 16.07H52.6952Z" fill="white"/>
<path d="M65.3571 16.07V3.3958H67.7067V8.50665H72.2345V3.3958H74.5841V16.07H72.2345V10.7534H67.7067V16.07H65.3571Z" fill="white"/>
<path d="M80.7233 16.07L86.0057 3.3958H87.8579L93.1746 16.07H90.5849L89.23 12.7943H84.7194L83.313 16.07H80.7233ZM85.5769 10.5476H88.2867L86.9318 6.70585L85.5769 10.5476Z" fill="white"/>
<path d="M93.4187 16.07L98.7182 3.3958H100.57L105.87 16.07H103.332L99.6443 6.6201L95.957 16.07H93.4187Z" fill="white"/>
<path d="M107.212 16.07V3.3958H114.021V5.64252H109.561V8.62671H113.832V10.8734H109.561V13.8233H114.021V16.07H107.212Z" fill="white"/>
<path d="M116.206 16.07V3.3958H118.555V8.86681L122.483 3.3958H125.313L120.545 9.62144L125.313 16.07H122.483L118.555 10.4961V16.07H116.206Z" fill="white"/>
<path d="M135.899 12.537H138.66C137.665 14.8523 135.419 16.293 132.812 16.293C129.107 16.293 126.14 13.3602 126.14 9.69004C126.14 6.10558 129.073 3.17284 132.657 3.17284C135.35 3.17284 137.563 4.59634 138.66 7.03171H136.036C135.179 5.91693 134.184 5.43671 132.709 5.43671C130.308 5.43671 128.507 7.27182 128.507 9.70719C128.507 12.0911 130.428 14.0291 132.76 14.0291C133.978 14.0291 134.853 13.6175 135.899 12.537Z" fill="white"/>
<path d="M140.491 16.07V3.3958H147.3V5.64252H142.841V8.62671H147.111V10.8734H142.841V13.8233H147.3V16.07H140.491Z" fill="white"/>
<path d="M151.56 0H153.533C153.533 0.908977 153.858 1.30344 154.596 1.30344C155.333 1.30344 155.659 0.908977 155.659 0H157.632C157.374 1.5264 156.26 2.41822 154.596 2.41822C152.932 2.41822 151.818 1.5264 151.56 0ZM149.485 16.07V3.3958H151.818V12.1769L157.323 3.3958H159.707V16.07H157.374V7.28897L151.869 16.07H149.485Z" fill="white"/>
<path d="M0 32.8785L5.4885 19.7097H7.41304L12.9372 32.8785H10.2464L8.83862 29.4749H4.15201L2.69079 32.8785H0ZM5.043 27.1405H7.85853L6.45077 23.1489L5.043 27.1405Z" fill="white"/>
<path d="M13.1908 32.8785L18.6971 19.7097H20.6217L26.128 32.8785H23.4907L19.6594 23.0598L15.8282 32.8785H13.1908Z" fill="white"/>
<path d="M27.5221 32.8785V19.7097H34.5966V22.0441H29.9634V25.1447H34.4006V27.4791H29.9634V30.5441H34.5966V32.8785H27.5221Z" fill="white"/>
<path d="M36.8671 32.8785V19.7097H39.3084V25.3942L43.3891 19.7097H46.3294L41.3755 26.1783L46.3294 32.8785H43.3891L39.3084 27.0871V32.8785H36.8671Z" fill="white"/>
<path d="M57.3288 29.2076H60.1978C59.1642 31.6133 56.8298 33.1102 54.1212 33.1102C50.2722 33.1102 47.1893 30.063 47.1893 26.2496C47.1893 22.5252 50.2365 19.478 53.9609 19.478C56.7586 19.478 59.0573 20.9571 60.1978 23.4875H57.4714C56.5804 22.3292 55.5468 21.8302 54.0143 21.8302C51.5196 21.8302 49.6485 23.737 49.6485 26.2674C49.6485 28.7443 51.6443 30.758 54.0678 30.758C55.333 30.758 56.2418 30.3303 57.3288 29.2076Z" fill="white"/>
<path d="M60.9597 32.8785L66.4482 19.7097H68.3728L73.8969 32.8785H71.2061L69.7984 29.4749H65.1117L63.6505 32.8785H60.9597ZM66.0027 27.1405H68.8183L67.4105 23.1489L66.0027 27.1405Z" fill="white"/>
<path d="M75.291 32.8785V19.7097H77.7323V25.02H82.4368V19.7097H84.8781V32.8785H82.4368V27.3544H77.7323V32.8785H75.291Z" fill="white"/>
<path d="M86.3872 35.4624V30.5441H88.1335L92.6419 19.7097H94.6021L99.1105 30.5441H100.857V35.4624H99.1462L98.6472 32.8785H88.5968L88.0979 35.4624H86.3872ZM90.6639 30.5441H96.5801L93.622 23.3271L90.6639 30.5441Z" fill="white"/>
<path d="M102.369 32.8785V19.7097H105.63C107.412 19.7097 108.321 19.8879 109.105 20.3868C110.174 21.064 110.78 22.2936 110.78 23.7726C110.78 25.3407 110.085 26.695 108.944 27.3366C108.231 27.7286 107.394 27.8712 105.594 27.8712H104.81V32.8785H102.369ZM104.81 25.5368H105.523C106.735 25.5368 108.321 25.4477 108.321 23.8261C108.321 22.9885 107.893 22.3648 107.18 22.1688C106.788 22.0797 106.396 22.0441 105.63 22.0441H104.81V25.5368Z" fill="white"/>
<path d="M111.96 26.303C111.96 22.4539 114.989 19.478 118.928 19.478C122.67 19.478 125.681 22.5252 125.681 26.2852C125.681 30.1343 122.723 33.1102 118.892 33.1102C115.025 33.1102 111.96 30.1165 111.96 26.303ZM114.419 26.2852C114.419 28.7978 116.379 30.758 118.874 30.758C121.369 30.758 123.222 28.8691 123.222 26.3208C123.222 23.737 121.333 21.8302 118.767 21.8302C116.362 21.8302 114.419 23.8082 114.419 26.2852Z" fill="white"/>
<path d="M127.584 32.8785V19.7097H130.293C133.75 19.7097 135.354 20.8145 135.354 23.2202C135.354 24.4676 134.944 25.1447 133.893 25.6971C135.479 26.3387 136.138 27.3009 136.138 28.9582C136.138 31.4529 134.303 32.8785 131.095 32.8785H127.584ZM130.026 30.5441H131.238C132.948 30.5441 133.679 30.0452 133.679 28.8869C133.679 27.8533 133.002 27.1762 131.968 27.1762H130.026V30.5441ZM130.026 24.7883H131.594C132.414 24.7883 132.913 24.2716 132.913 23.434C132.913 22.5252 132.307 22.0975 131.024 22.0975H130.026V24.7883Z" fill="white"/>
<path d="M138.043 32.8785V19.7097H140.467V28.8334L146.187 19.7097H148.664V32.8785H146.24V23.7548L140.52 32.8785H138.043Z" fill="white"/>
<path d="M157.4 32.8785V27.8355C156.278 28.0315 155.476 28.1206 154.781 28.1206C152.108 28.1206 150.825 26.8198 150.825 24.1468V19.7097H153.266V23.5231C153.266 25.1625 153.801 25.7862 155.209 25.7862C156.135 25.7862 156.741 25.7328 157.4 25.5902V19.7097H159.842V32.8785H157.4Z" fill="white"/>
</svg>
