<svg width="24" height="24" viewBox="0 0 24 24" fill="none" xmlns="http://www.w3.org/2000/svg">
<circle cx="12" cy="12" r="10" fill="#099B6F"/>
<path fill-rule="evenodd" clip-rule="evenodd" d="M14.4648 17.1868C13.7624 17.1609 11.7716 16.8858 9.68675 14.8014C7.60236 12.7165 7.32773 10.7263 7.30139 10.0233C7.26236 8.95212 8.08285 7.91163 9.03065 7.50529C9.14479 7.456 9.26978 7.43724 9.39335 7.45084C9.51693 7.46443 9.63484 7.50992 9.73553 7.58285C10.516 8.15163 11.0546 9.01212 11.517 9.6887C11.6187 9.83735 11.6622 10.0182 11.6392 10.1969C11.6162 10.3756 11.5282 10.5395 11.3921 10.6575L10.4404 11.3643C10.3944 11.3975 10.3621 11.4463 10.3493 11.5015C10.3366 11.5568 10.3443 11.6148 10.3711 11.6648C10.5868 12.0565 10.9702 12.6399 11.4092 13.0789C11.8487 13.518 12.4594 13.9268 12.8785 14.1668C12.931 14.1962 12.9928 14.2045 13.0513 14.1898C13.1097 14.1751 13.1603 14.1386 13.1926 14.0877L13.8121 13.1448C13.926 12.9935 14.094 12.8922 14.281 12.862C14.4679 12.8318 14.6593 12.8751 14.815 12.9828C15.5014 13.458 16.3024 13.9872 16.8887 14.738C16.9675 14.8394 17.0177 14.9601 17.0339 15.0876C17.0501 15.215 17.0318 15.3444 16.9809 15.4624C16.5726 16.415 15.5394 17.2263 14.4648 17.1868Z" fill="white"/>
</svg>
